REM DIRINDEX 1\2,1\3,1\4,1\5
REM DIRNAME folder01,folder02,folder03,folder04,folder05
TITLE ""
FILE "062.mp3" MP3
  TRACK 01 AUDIO
    TITLE "0:"
    INDEX 01 00:00:00
  TRACK 02 AUDIO
    TITLE "2:cjc046_1168"
    INDEX 01 00:00:15
  TRACK 03 AUDIO
    TITLE "0:"
    INDEX 01 00:01:24
  TRACK 04 AUDIO
    TITLE "3:cjc046_1169"
    INDEX 01 00:01:52
  TRACK 05 AUDIO
    TITLE "0:"
    INDEX 01 00:02:43
  TRACK 06 AUDIO
    TITLE "4:cjc046_1170"
    INDEX 01 00:02:59
  TRACK 07 AUDIO
    TITLE "0:"
    INDEX 01 00:03:68
  TRACK 08 AUDIO
    TITLE "2:cjc046_1171"
    INDEX 01 00:05:05
  TRACK 09 AUDIO
    TITLE "0:"
    INDEX 01 00:06:06
  TRACK 10 AUDIO
    TITLE "3:cjc046_1172"
    INDEX 01 00:06:31
  TRACK 11 AUDIO
    TITLE "0:"
    INDEX 01 00:07:39
  TRACK 12 AUDIO
    TITLE "4:cjc046_1173"
    INDEX 01 00:07:54
  TRACK 13 AUDIO
    TITLE "0:"
    INDEX 01 00:08:54
  TRACK 14 AUDIO
    TITLE "2:cjc046_1174"
    INDEX 01 00:09:61
  TRACK 15 AUDIO
    TITLE "0:"
    INDEX 01 00:10:70
  TRACK 16 AUDIO
    TITLE "3:cjc046_1175"
    INDEX 01 00:11:19
  TRACK 17 AUDIO
    TITLE "0:"
    INDEX 01 00:12:40
  TRACK 18 AUDIO
    TITLE "4:cjc046_1176"
    INDEX 01 00:12:50
  TRACK 19 AUDIO
    TITLE "0:"
    INDEX 01 00:13:59
  TRACK 20 AUDIO
    TITLE "2:cjc046_1177"
    INDEX 01 00:14:64
  TRACK 21 AUDIO
    TITLE "0:"
    INDEX 01 00:15:68
  TRACK 22 AUDIO
    TITLE "3:cjc046_1178"
    INDEX 01 00:16:20
  TRACK 23 AUDIO
    TITLE "0:"
    INDEX 01 00:17:12
  TRACK 24 AUDIO
    TITLE "4:cjc046_1179"
    INDEX 01 00:17:27
  TRACK 25 AUDIO
    TITLE "0:"
    INDEX 01 00:18:29
  TRACK 26 AUDIO
    TITLE "2:cjc046_1180"
    INDEX 01 00:19:34
  TRACK 27 AUDIO
    TITLE "0:"
    INDEX 01 00:20:41
  TRACK 28 AUDIO
    TITLE "3:cjc046_1181"
    INDEX 01 00:20:67
  TRACK 29 AUDIO
    TITLE "0:"
    INDEX 01 00:21:57
  TRACK 30 AUDIO
    TITLE "4:cjc046_1182"
    INDEX 01 00:21:62
  TRACK 31 AUDIO
    TITLE "0:"
    INDEX 01 00:22:66
  TRACK 32 AUDIO
    TITLE "2:cjc046_1183"
    INDEX 01 00:24:00
  TRACK 33 AUDIO
    TITLE "0:"
    INDEX 01 00:25:13
  TRACK 34 AUDIO
    TITLE "3:cjc046_1184"
    INDEX 01 00:25:41
  TRACK 35 AUDIO
    TITLE "0:"
    INDEX 01 00:26:58
  TRACK 36 AUDIO
    TITLE "4:cjc046_1185"
    INDEX 01 00:26:67
  TRACK 37 AUDIO
    TITLE "0:"
    INDEX 01 00:28:04
  TRACK 38 AUDIO
    TITLE "2:cjc046_1186"
    INDEX 01 00:29:15
  TRACK 39 AUDIO
    TITLE "0:"
    INDEX 01 00:30:12
  TRACK 40 AUDIO
    TITLE "3:cjc046_1187"
    INDEX 01 00:30:36
  TRACK 41 AUDIO
    TITLE "0:"
    INDEX 01 00:31:43
  TRACK 42 AUDIO
    TITLE "4:cjc046_1188"
    INDEX 01 00:31:61
  TRACK 43 AUDIO
    TITLE "0:"
    INDEX 01 00:32:58
  TRACK 44 AUDIO
    TITLE "2:cjc046_1189"
    INDEX 01 00:33:66
  TRACK 45 AUDIO
    TITLE "0:"
    INDEX 01 00:35:04
  TRACK 46 AUDIO
    TITLE "3:cjc046_1190"
    INDEX 01 00:35:31
  TRACK 47 AUDIO
    TITLE "0:"
    INDEX 01 00:36:46
  TRACK 48 AUDIO
    TITLE "4:cjc046_1191"
    INDEX 01 00:36:60
  TRACK 49 AUDIO
    TITLE "0:"
    INDEX 01 00:38:02
  TRACK 50 AUDIO
    TITLE "2:cjc046_1192"
    INDEX 01 00:39:11
  TRACK 51 AUDIO
    TITLE "0:"
    INDEX 01 00:40:13
  TRACK 52 AUDIO
    TITLE "3:cjc046_1193"
    INDEX 01 00:40:36
  TRACK 53 AUDIO
    TITLE "0:"
    INDEX 01 00:41:30
  TRACK 54 AUDIO
    TITLE "4:cjc046_1194"
    INDEX 01 00:41:47
  TRACK 55 AUDIO
    TITLE "0:"
    INDEX 01 00:42:49
  TRACK 56 AUDIO
    TITLE "2:cjc046_1195"
    INDEX 01 00:43:58
  TRACK 57 AUDIO
    TITLE "0:"
    INDEX 01 00:44:61
  TRACK 58 AUDIO
    TITLE "3:cjc046_1196"
    INDEX 01 00:45:10
  TRACK 59 AUDIO
    TITLE "0:"
    INDEX 01 00:46:29
  TRACK 60 AUDIO
    TITLE "4:cjc046_1197"
    INDEX 01 00:46:45
  TRACK 61 AUDIO
    TITLE "0:"
    INDEX 01 00:47:48
